<svg xmlns="http://www.w3.org/2000/svg" xmlns:xlink="http://www.w3.org/1999/xlink" viewBox="0 0 55.98 59.71"><defs><style>.cls-1{fill:none;}.cls-2{clip-path:url(#clip-path);}.cls-3{fill:#ff9d00;}</style><clipPath id="clip-path"><rect class="cls-1" y="0.01" width="56" height="59.77"/></clipPath></defs><title>资源 55</title><g id="图层_2" data-name="图层 2"><g id="图层_1-2" data-name="图层 1"><g class="cls-2"><path class="cls-3" d="M42.47,11.19A2.84,2.84,0,0,0,45.36,8.4V2.8a2.9,2.9,0,0,0-5.79,0V8.4a2.84,2.84,0,0,0,2.9,2.79Zm-29,0a2.85,2.85,0,0,0,2.9-2.79V2.8a2.9,2.9,0,0,0-5.79,0V8.4a2.84,2.84,0,0,0,2.89,2.79Z"/></g><path class="cls-3" d="M53.08,5.59H48.26V8.4a5.79,5.79,0,0,1-11.58,0V5.6H33.59c0-.07-2.4,0-5.6,0s-5.6,0-5.6,0H19.3V8.4A5.69,5.69,0,0,1,13.51,14,5.69,5.69,0,0,1,7.72,8.4V5.6H2.9A2.84,2.84,0,0,0,0,8.4V56.91a2.84,2.84,0,0,0,2.9,2.8H53.08a2.85,2.85,0,0,0,2.9-2.8V8.4a2.85,2.85,0,0,0-2.9-2.8ZM40.54,50.38H15.44a2.09,2.09,0,1,1,0-4.18h25.1a2.09,2.09,0,1,1,0,4.18Zm0-10.81H15.44a2.09,2.09,0,1,1,0-4.18h25.1a2.09,2.09,0,1,1,0,4.18Zm0-10.81H15.44a2.09,2.09,0,0,1,0-4.18h25.1a2.09,2.09,0,0,1,0,4.18Z"/></g></g></svg>