<svg xmlns="http://www.w3.org/2000/svg" xmlns:xlink="http://www.w3.org/1999/xlink" viewBox="0 0 55.99 56.07"><defs><style>.cls-1{fill:none;}.cls-2{clip-path:url(#clip-path);}.cls-3{fill:#5eb949;}</style><clipPath id="clip-path" transform="translate(0 0)"><rect class="cls-1" x="0.01" width="56" height="56.14"/></clipPath></defs><title>资源 56</title><g id="图层_2" data-name="图层 2"><g id="图层_1-2" data-name="图层 1"><g class="cls-2"><path class="cls-3" d="M51.05,10.17,23.19,4.62c-.43,1.17-.86,2.32-1.28,3.47q-4.2,11.54-8.39,23.07a2.37,2.37,0,0,1-1.91,1.76,2.19,2.19,0,0,1-2.23-3.13c.92-2.47,1.82-5,2.73-7.44l7.5-20.57a2.3,2.3,0,0,1,3-1.69L53.91,6.31a2.24,2.24,0,0,1,1.91,3.15c-3.72,11.52-7.51,23-12,34.28a34.15,34.15,0,0,1-3.68,7.13,11.55,11.55,0,0,1-9.3,5.18,13.66,13.66,0,0,1-6.51-1.31c-5.85-2.65-11.68-5.33-17.55-8a11.8,11.8,0,0,1-4.44-3.06A10.69,10.69,0,0,1,0,35.86c.07-1,.24-2,.38-3L1,33q11.78,4.77,23.57,9.52a.7.7,0,0,1,.54.79,11.27,11.27,0,0,0,1.05,5.51,5.12,5.12,0,0,0,5.52,2.74c2.58-.37,4.18-2,5.46-4a47.87,47.87,0,0,0,3.73-8.14c3.35-8.76,6.34-17.64,9.27-26.55l.88-2.7Z" transform="translate(0 0)"/></g><path class="cls-3" d="M36.48,37a2.13,2.13,0,0,1-2.88,2c-3.13-1-6.24-2-9.35-3.07a2.18,2.18,0,0,1-1.5-2.26,2.13,2.13,0,0,1,1.9-1.91,2.85,2.85,0,0,1,1.12.13l9,3A2.17,2.17,0,0,1,36.48,37ZM40,28.15a2.1,2.1,0,0,1-2.13,2.17,3.11,3.11,0,0,1-.91-.16c-3-1-6-1.95-9-2.94a2.19,2.19,0,0,1-1.61-2.67A2.08,2.08,0,0,1,28.92,23c1.08.27,2.13.66,3.19,1l6.22,2A2.17,2.17,0,0,1,40,28.15Zm3.86-9.39a2.07,2.07,0,0,1-2.33,2.11c-1.35-.26-2.67-.66-4-1q-2.87-.76-5.73-1.57a2.14,2.14,0,0,1-1.7-1.93,2,2,0,0,1,1-2,2.39,2.39,0,0,1,2-.16L39.71,16c.84.24,1.7.45,2.54.71a2.14,2.14,0,0,1,1.63,2.09ZM22.18,21a2.33,2.33,0,0,1,2.47,2.21,2.21,2.21,0,0,1-2.19,2.15A2.31,2.31,0,0,1,20,23.13,2.19,2.19,0,0,1,22.18,21Zm3.61-4.66a2.29,2.29,0,0,1-2.41-2.2A2.14,2.14,0,0,1,25.6,12,2.25,2.25,0,0,1,28,14.24a2.11,2.11,0,0,1-2.23,2.08Zm-7,13a2.24,2.24,0,0,1,2.37,2.21A2.11,2.11,0,0,1,19,33.66a2.28,2.28,0,0,1-2.5-2.21,2.15,2.15,0,0,1,2.26-2.11Z" transform="translate(0 0)"/></g></g></svg>