<svg xmlns="http://www.w3.org/2000/svg" xmlns:xlink="http://www.w3.org/1999/xlink" viewBox="0 0 55.95 60.21"><defs><style>.cls-1{fill:none;}.cls-2{clip-path:url(#clip-path);}.cls-3{fill:#009dda;}</style><clipPath id="clip-path" transform="translate(0 -0.04)"><rect class="cls-1" x="0.01" width="56" height="60.32"/></clipPath></defs><title>资源 58</title><g id="图层_2" data-name="图层 2"><g id="图层_1-2" data-name="图层 1"><g class="cls-2"><path class="cls-3" d="M0,18.71V59a1.43,1.43,0,0,0,1.54,1.3h9.53A1.44,1.44,0,0,0,12.61,59V18.71Zm12.61-2.27V10a1.45,1.45,0,0,0-1.54-1.3H1.54A1.44,1.44,0,0,0,0,10v6.44ZM32.82,23,44,59.38a1.44,1.44,0,0,0,1.85.79l9-2.76a1.43,1.43,0,0,0,1.08-1.69L44.76,19.31ZM44.1,17.14,42.21,11a1.43,1.43,0,0,0-1.84-.79l-9,2.76a1.43,1.43,0,0,0-1.08,1.69l1.89,6.15Z" transform="translate(0 -0.04)"/></g><path class="cls-3" d="M30.42,50.24V1.34c0-.72-.8-1.3-1.78-1.3h-11c-1,0-1.77.58-1.77,1.3v48.9ZM15.87,52.52V59c0,.72.79,1.3,1.77,1.3h11c1,0,1.78-.58,1.78-1.3V52.52Z" transform="translate(0 -0.04)"/></g></g></svg>